  0
SECTION
  2
HEADER
  9
$ANGBASE
  50
0.0
  9
$ANGDIR
  70
1
  9
$MEASUREMENT
  70
0
  0
ENDSEC
  0
SECTION
  2
TABLES
  0
TABLE
  2
LTYPE
  70
4
  0
LTYPE
  5
40F
  2
CONTINUOUS
  70
0
  3
Solid line
  72
65
  73
0
  40
0.0
  0
LTYPE
  5
410
  2
DASHDOT
 70
0
  3
Dash Dot ____ _ ____ _
 72
65
 73
4
 40
2.0
 49
1.25
 49
-0.25
 49
0.25
 49
-0.25
  0
LTYPE
  5
411
  2
DASHED
 70
0
  3
Dashed __ __ __ __ __
 72
65
 73
2
 40
0.75
 49
0.5
 49
-0.25
  0
LTYPE
  5
43B
  2
DOTTED
 70
0
  3
Dotted .  .  .  .
 72
65
 73
2
 40
0.2
 49
0.0
 49
-0.2
  0
ENDTAB
  0
TABLE
  2
STYLE
  70
4
  0
STYLE
  2
KICAD
  70
0
  40
0
  41
1
  42
1
  50
0
  71
0
  3
isocp.shx
  0
STYLE
  2
KICADB
  70
0
  40
0
  41
1
  42
1
  50
0
  71
0
  3
isocp.shx
  0
STYLE
  2
KICADI
  70
0
  40
0
  41
1
  42
1
  50
15
  71
0
  3
isocp.shx
  0
STYLE
  2
KICADBI
  70
0
  40
0
  41
1
  42
1
  50
15
  71
0
  3
isocp.shx
  0
ENDTAB
  0
TABLE
  2
LAYER
  70
1
  0
LAYER
  2
BLACK
  70
0
  62
7
  6
CONTINUOUS
  0
ENDTAB
  0
ENDSEC
  0
SECTION
  2
ENTITIES
0
LINE
8
BLACK
6
CONTINUOUS
10
2.2879844488188974
20
-1.0127100787401575
11
2.2906546456692913
21
-1.0142517322834645
0
LINE
8
BLACK
6
CONTINUOUS
10
2.2906546456692913
20
-1.0142517322834645
11
2.2928348818897639
21
-1.0164319685039369
0
LINE
8
BLACK
6
CONTINUOUS
10
2.2928348818897639
20
-1.0164319685039369
11
2.294376535433071
21
-1.0191021653543306
0
LINE
8
BLACK
6
CONTINUOUS
10
2.294376535433071
20
-1.0191021653543306
11
2.2951745275590549
21
-1.0220803937007874
0
LINE
8
BLACK
6
CONTINUOUS
10
2.2951745275590549
20
-1.0220803937007874
11
2.2951745275590549
21
-1.0251637007874015
0
LINE
8
BLACK
6
CONTINUOUS
10
2.2951745275590549
20
-1.0251637007874015
11
2.294376535433071
21
-1.0281419291338583
0
LINE
8
BLACK
6
CONTINUOUS
10
2.294376535433071
20
-1.0281419291338583
11
2.2928348818897639
21
-1.030812125984252
0
LINE
8
BLACK
6
CONTINUOUS
10
2.2928348818897639
20
-1.030812125984252
11
2.2906546456692913
21
-1.0329923622047243
0
LINE
8
BLACK
6
CONTINUOUS
10
2.2906546456692913
20
-1.0329923622047243
11
2.2879844488188974
21
-1.0345340157480314
0
LINE
8
BLACK
6
CONTINUOUS
10
2.2879844488188974
20
-1.0345340157480314
11
2.2850062204724408
21
-1.0353320078740158
0
LINE
8
BLACK
6
CONTINUOUS
10
2.2850062204724408
20
-1.0353320078740158
11
2.2819229133858268
21
-1.0353320078740158
0
LINE
8
BLACK
6
CONTINUOUS
10
2.2819229133858268
20
-1.0353320078740158
11
2.2789446850393702
21
-1.0345340157480314
0
LINE
8
BLACK
6
CONTINUOUS
10
2.2789446850393702
20
-1.0345340157480314
11
2.2784220866141731
21
-1.034232283464567
0
LINE
8
BLACK
6
CONTINUOUS
10
2.2784220866141731
20
-1.034232283464567
11
2.1878232677165355
21
-1.1248311417322834
0
LINE
8
BLACK
6
CONTINUOUS
10
2.1878232677165355
20
-1.1248311417322834
11
2.1872266535433069
21
-1.125320748031496
0
LINE
8
BLACK
6
CONTINUOUS
10
2.1872266535433069
20
-1.125320748031496
11
2.185807440944882
21
-1.1259086220472441
0
LINE
8
BLACK
6
CONTINUOUS
10
2.185807440944882
20
-1.1259086220472441
11
2.1850393700787403
21
-1.1259842519685039
0
LINE
8
BLACK
6
CONTINUOUS
10
2.1850393700787403
20
-1.1259842519685039
11
2.0118110236220472
21
-1.1259842519685039
0
LINE
8
BLACK
6
CONTINUOUS
10
2.0118110236220472
20
-1.1259842519685039
11
2.0118110236220472
21
-1.2204724409448819
0
LINE
8
BLACK
6
CONTINUOUS
10
2.0118110236220472
20
-1.2204724409448819
11
2.0117353937007874
21
-1.2212405118110237
0
LINE
8
BLACK
6
CONTINUOUS
10
2.0117353937007874
20
-1.2212405118110237
11
2.011147559055118
21
-1.2226597244094488
0
LINE
8
BLACK
6
CONTINUOUS
10
2.011147559055118
20
-1.2226597244094488
11
2.0106579133858267
21
-1.2232562992125984
0
LINE
8
BLACK
6
CONTINUOUS
10
2.0106579133858267
20
-1.2232562992125984
11
1.9780087401574802
21
-1.2559055118110236
0
LINE
8
BLACK
6
CONTINUOUS
10
1.9780087401574802
20
-1.2559055118110236
11
2.3818897637795273
21
-1.2559055118110236
0
LINE
8
BLACK
6
CONTINUOUS
10
2.3818897637795273
20
-1.2559055118110236
11
2.382657834645669
21
-1.2559811417322835
0
LINE
8
BLACK
6
CONTINUOUS
10
2.382657834645669
20
-1.2559811417322835
11
2.3840770472440944
21
-1.2565690157480314
0
LINE
8
BLACK
6
CONTINUOUS
10
2.3840770472440944
20
-1.2565690157480314
11
2.384673661417323
21
-1.2570586220472442
0
LINE
8
BLACK
6
CONTINUOUS
10
2.384673661417323
20
-1.2570586220472442
11
2.4437287401574803
21
-1.3161137401574803
0
LINE
8
BLACK
6
CONTINUOUS
10
2.4437287401574803
20
-1.3161137401574803
11
2.4442183858267716
21
-1.3167103149606298
0
LINE
8
BLACK
6
CONTINUOUS
10
2.4442183858267716
20
-1.3167103149606298
11
2.4442183858267716
21
-1.3167103543307086
0
LINE
8
BLACK
6
CONTINUOUS
10
2.4442183858267716
20
-1.3167103543307086
11
2.444806220472441
21
-1.3181295669291337
0
LINE
8
BLACK
6
CONTINUOUS
10
2.444806220472441
20
-1.3181295669291337
11
2.444806220472441
21
-1.3196657086614172
0
LINE
8
BLACK
6
CONTINUOUS
10
2.444806220472441
20
-1.3196657086614172
11
2.4442183858267716
21
-1.3210849212598426
0
LINE
8
BLACK
6
CONTINUOUS
10
2.4442183858267716
20
-1.3210849212598426
11
2.4437287795275591
21
-1.3216815354330709
0
LINE
8
BLACK
6
CONTINUOUS
10
2.4437287795275591
20
-1.3216815354330709
11
2.3649886220472442
21
-1.4004216929133857
0
LINE
8
BLACK
6
CONTINUOUS
10
2.3649886220472442
20
-1.4004216929133857
11
2.3643920078740157
21
-1.4009112992125985
0
LINE
8
BLACK
6
CONTINUOUS
10
2.3643920078740157
20
-1.4009112992125985
11
2.3629727952755903
21
-1.4014991732283464
0
LINE
8
BLACK
6
CONTINUOUS
10
2.3629727952755903
20
-1.4014991732283464
11
2.3622047244094486
21
-1.4015748031496063
0
LINE
8
BLACK
6
CONTINUOUS
10
2.3622047244094486
20
-1.4015748031496063
11
1.9780087401574802
21
-1.4015748031496063
0
LINE
8
BLACK
6
CONTINUOUS
10
1.9780087401574802
20
-1.4015748031496063
11
2.1276150393700788
21
-1.5511811023622046
0
LINE
8
BLACK
6
CONTINUOUS
10
2.1276150393700788
20
-1.5511811023622046
11
2.1456692913385824
21
-1.5511811023622046
0
LINE
8
BLACK
6
CONTINUOUS
10
2.1456692913385824
20
-1.5511811023622046
11
2.1464373622047241
21
-1.5512567322834645
0
LINE
8
BLACK
6
CONTINUOUS
10
2.1464373622047241
20
-1.5512567322834645
11
2.1478565748031495
21
-1.5518446062992126
0
LINE
8
BLACK
6
CONTINUOUS
10
2.1478565748031495
20
-1.5518446062992126
11
2.1489427952755906
21
-1.5529308267716535
0
LINE
8
BLACK
6
CONTINUOUS
10
2.1489427952755906
20
-1.5529308267716535
11
2.1495306692913387
21
-1.5543500393700787
0
LINE
8
BLACK
6
CONTINUOUS
10
2.1495306692913387
20
-1.5543500393700787
11
2.1496062992125982
21
-1.5551181102362204
0
LINE
8
BLACK
6
CONTINUOUS
10
2.1496062992125982
20
-1.5551181102362204
11
2.1496062992125982
21
-1.6031050787401575
0
LINE
8
BLACK
6
CONTINUOUS
10
2.1496062992125982
20
-1.6031050787401575
11
2.1501891732283465
21
-1.6032612598425195
0
LINE
8
BLACK
6
CONTINUOUS
10
2.1501891732283465
20
-1.6032612598425195
11
2.15285937007874
21
-1.6048029133858268
0
LINE
8
BLACK
6
CONTINUOUS
10
2.15285937007874
20
-1.6048029133858268
11
2.1550396062992125
21
-1.6069831496062992
0
LINE
8
BLACK
6
CONTINUOUS
10
2.1550396062992125
20
-1.6069831496062992
11
2.1565812598425196
21
-1.6096533464566929
0
LINE
8
BLACK
6
CONTINUOUS
10
2.1565812598425196
20
-1.6096533464566929
11
2.157379251968504
21
-1.6126315748031497
0
LINE
8
BLACK
6
CONTINUOUS
10
2.157379251968504
20
-1.6126315748031497
11
2.157379251968504
21
-1.6157148818897638
0
LINE
8
BLACK
6
CONTINUOUS
10
2.157379251968504
20
-1.6157148818897638
11
2.1565812598425196
21
-1.6186931102362205
0
LINE
8
BLACK
6
CONTINUOUS
10
2.1565812598425196
20
-1.6186931102362205
11
2.1550396062992125
21
-1.6213633070866142
0
LINE
8
BLACK
6
CONTINUOUS
10
2.1550396062992125
20
-1.6213633070866142
11
2.15285937007874
21
-1.6235435433070866
0
LINE
8
BLACK
6
CONTINUOUS
10
2.15285937007874
20
-1.6235435433070866
11
2.1501891732283465
21
-1.6250851968503937
0
LINE
8
BLACK
6
CONTINUOUS
10
2.1501891732283465
20
-1.6250851968503937
11
2.1472109448818899
21
-1.6258831889763778
0
LINE
8
BLACK
6
CONTINUOUS
10
2.1472109448818899
20
-1.6258831889763778
11
2.1441276377952754
21
-1.6258831889763778
0
LINE
8
BLACK
6
CONTINUOUS
10
2.1441276377952754
20
-1.6258831889763778
11
2.1411494094488188
21
-1.6250851968503937
0
LINE
8
BLACK
6
CONTINUOUS
10
2.1411494094488188
20
-1.6250851968503937
11
2.1384792125984253
21
-1.6235435433070866
0
LINE
8
BLACK
6
CONTINUOUS
10
2.1384792125984253
20
-1.6235435433070866
11
2.1362989763779527
21
-1.6213633070866142
0
LINE
8
BLACK
6
CONTINUOUS
10
2.1362989763779527
20
-1.6213633070866142
11
2.1347573228346457
21
-1.6186931102362205
0
LINE
8
BLACK
6
CONTINUOUS
10
2.1347573228346457
20
-1.6186931102362205
11
2.1339593307086613
21
-1.6157148818897638
0
LINE
8
BLACK
6
CONTINUOUS
10
2.1339593307086613
20
-1.6157148818897638
11
2.1339593307086613
21
-1.6126315748031497
0
LINE
8
BLACK
6
CONTINUOUS
10
2.1339593307086613
20
-1.6126315748031497
11
2.1347573228346457
21
-1.6096533464566929
0
LINE
8
BLACK
6
CONTINUOUS
10
2.1347573228346457
20
-1.6096533464566929
11
2.1362989763779527
21
-1.6069831496062992
0
LINE
8
BLACK
6
CONTINUOUS
10
2.1362989763779527
20
-1.6069831496062992
11
2.1384792125984253
21
-1.6048029133858268
0
LINE
8
BLACK
6
CONTINUOUS
10
2.1384792125984253
20
-1.6048029133858268
11
2.1411494094488188
21
-1.6032612598425195
0
LINE
8
BLACK
6
CONTINUOUS
10
2.1411494094488188
20
-1.6032612598425195
11
2.1417322834645667
21
-1.6031050787401575
0
LINE
8
BLACK
6
CONTINUOUS
10
2.1417322834645667
20
-1.6031050787401575
11
2.1417322834645667
21
-1.5590551181102361
0
LINE
8
BLACK
6
CONTINUOUS
10
2.1417322834645667
20
-1.5590551181102361
11
2.1259842519685037
21
-1.5590551181102361
0
LINE
8
BLACK
6
CONTINUOUS
10
2.1259842519685037
20
-1.5590551181102361
11
2.125216181102362
21
-1.5589794881889762
0
LINE
8
BLACK
6
CONTINUOUS
10
2.125216181102362
20
-1.5589794881889762
11
2.1242125984251969
21
-1.5585637795275591
0
LINE
8
BLACK
6
CONTINUOUS
10
2.1242125984251969
20
-1.5585637795275591
11
2.1237969291338583
21
-1.5583916141732284
0
LINE
8
BLACK
6
CONTINUOUS
10
2.1237969291338583
20
-1.5583916141732284
11
2.1232003543307085
21
-1.5579020078740158
0
LINE
8
BLACK
6
CONTINUOUS
10
2.1232003543307085
20
-1.5579020078740158
11
1.9657200393700787
21
-1.4004216929133857
0
LINE
8
BLACK
6
CONTINUOUS
10
1.9657200393700787
20
-1.4004216929133857
11
1.9652304330708661
21
-1.3998250787401574
0
LINE
8
BLACK
6
CONTINUOUS
10
1.9652304330708661
20
-1.3998250787401574
11
1.964642559055118
21
-1.3984058661417322
0
LINE
8
BLACK
6
CONTINUOUS
10
1.964642559055118
20
-1.3984058661417322
11
1.964642559055118
21
-1.3968697244094488
0
LINE
8
BLACK
6
CONTINUOUS
10
1.964642559055118
20
-1.3968697244094488
11
1.9652304330708661
21
-1.3954505118110236
0
LINE
8
BLACK
6
CONTINUOUS
10
1.9652304330708661
20
-1.3954505118110236
11
1.966316653543307
21
-1.3943642913385828
0
LINE
8
BLACK
6
CONTINUOUS
10
1.966316653543307
20
-1.3943642913385828
11
1.9677358661417323
21
-1.3937764173228346
0
LINE
8
BLACK
6
CONTINUOUS
10
1.9677358661417323
20
-1.3937764173228346
11
1.9685039370078741
21
-1.3937007874015748
0
LINE
8
BLACK
6
CONTINUOUS
10
1.9685039370078741
20
-1.3937007874015748
11
2.360573937007874
21
-1.3937007874015748
0
LINE
8
BLACK
6
CONTINUOUS
10
2.360573937007874
20
-1.3937007874015748
11
2.4353770866141731
21
-1.3188975984251967
0
LINE
8
BLACK
6
CONTINUOUS
10
2.4353770866141731
20
-1.3188975984251967
11
2.3802589763779527
21
-1.2637795275590551
0
LINE
8
BLACK
6
CONTINUOUS
10
2.3802589763779527
20
-1.2637795275590551
11
1.9685039370078741
21
-1.2637795275590551
0
LINE
8
BLACK
6
CONTINUOUS
10
1.9685039370078741
20
-1.2637795275590551
11
1.9677358661417323
21
-1.2637038976377952
0
LINE
8
BLACK
6
CONTINUOUS
10
1.9677358661417323
20
-1.2637038976377952
11
1.966316653543307
21
-1.2631160236220471
0
LINE
8
BLACK
6
CONTINUOUS
10
1.966316653543307
20
-1.2631160236220471
11
1.9652304330708661
21
-1.2620298031496062
0
LINE
8
BLACK
6
CONTINUOUS
10
1.9652304330708661
20
-1.2620298031496062
11
1.964642559055118
21
-1.2606105905511811
0
LINE
8
BLACK
6
CONTINUOUS
10
1.964642559055118
20
-1.2606105905511811
11
1.964642559055118
21
-1.2590744488188976
0
LINE
8
BLACK
6
CONTINUOUS
10
1.964642559055118
20
-1.2590744488188976
11
1.9652304330708661
21
-1.2576552362204725
0
LINE
8
BLACK
6
CONTINUOUS
10
1.9652304330708661
20
-1.2576552362204725
11
1.9657200393700787
21
-1.2570586220472442
0
LINE
8
BLACK
6
CONTINUOUS
10
1.9657200393700787
20
-1.2570586220472442
11
2.0039370078740157
21
-1.2188416535433071
0
LINE
8
BLACK
6
CONTINUOUS
10
2.0039370078740157
20
-1.2188416535433071
11
2.0039370078740157
21
-1.1220472440944882
0
LINE
8
BLACK
6
CONTINUOUS
10
2.0039370078740157
20
-1.1220472440944882
11
2.0040126377952756
21
-1.1212791732283465
0
LINE
8
BLACK
6
CONTINUOUS
10
2.0040126377952756
20
-1.1212791732283465
11
2.0046005118110237
21
-1.1198599606299213
0
LINE
8
BLACK
6
CONTINUOUS
10
2.0046005118110237
20
-1.1198599606299213
11
2.0056867322834644
21
-1.1187737401574802
0
LINE
8
BLACK
6
CONTINUOUS
10
2.0056867322834644
20
-1.1187737401574802
11
2.0071059448818898
21
-1.1181858661417323
0
LINE
8
BLACK
6
CONTINUOUS
10
2.0071059448818898
20
-1.1181858661417323
11
2.0078740157480315
21
-1.1181102362204725
0
LINE
8
BLACK
6
CONTINUOUS
10
2.0078740157480315
20
-1.1181102362204725
11
2.1834085826771652
21
-1.1181102362204725
0
LINE
8
BLACK
6
CONTINUOUS
10
2.1834085826771652
20
-1.1181102362204725
11
2.2728542913385827
21
-1.0286644881889764
0
LINE
8
BLACK
6
CONTINUOUS
10
2.2728542913385827
20
-1.0286644881889764
11
2.2725525984251966
21
-1.0281419291338583
0
LINE
8
BLACK
6
CONTINUOUS
10
2.2725525984251966
20
-1.0281419291338583
11
2.2717546062992127
21
-1.0251637007874015
0
LINE
8
BLACK
6
CONTINUOUS
10
2.2717546062992127
20
-1.0251637007874015
11
2.2717546062992127
21
-1.0220803937007874
0
LINE
8
BLACK
6
CONTINUOUS
10
2.2717546062992127
20
-1.0220803937007874
11
2.2725525984251966
21
-1.0191021653543306
0
LINE
8
BLACK
6
CONTINUOUS
10
2.2725525984251966
20
-1.0191021653543306
11
2.2740942519685037
21
-1.0164319685039369
0
LINE
8
BLACK
6
CONTINUOUS
10
2.2740942519685037
20
-1.0164319685039369
11
2.2762744881889763
21
-1.0142517322834645
0
LINE
8
BLACK
6
CONTINUOUS
10
2.2762744881889763
20
-1.0142517322834645
11
2.2789446850393702
21
-1.0127100787401575
0
LINE
8
BLACK
6
CONTINUOUS
10
2.2789446850393702
20
-1.0127100787401575
11
2.2819229133858268
21
-1.0119120866141733
0
LINE
8
BLACK
6
CONTINUOUS
10
2.2819229133858268
20
-1.0119120866141733
11
2.2850062204724408
21
-1.0119120866141733
0
LINE
8
BLACK
6
CONTINUOUS
10
2.2850062204724408
20
-1.0119120866141733
11
2.2879844488188974
21
-1.0127100787401575
0
LINE
8
BLACK
6
CONTINUOUS
10
2.9769608267716534
20
-0.97334
11
2.9796310236220473
21
-0.974881653543307
0
LINE
8
BLACK
6
CONTINUOUS
10
2.9796310236220473
20
-0.974881653543307
11
2.9818112598425195
21
-0.9770618897637795
0
LINE
8
BLACK
6
CONTINUOUS
10
2.9818112598425195
20
-0.9770618897637795
11
2.9833529133858265
21
-0.9797320866141732
0
LINE
8
BLACK
6
CONTINUOUS
10
2.9833529133858265
20
-0.9797320866141732
11
2.9841509055118109
21
-0.9827103149606299
0
LINE
8
BLACK
6
CONTINUOUS
10
2.9841509055118109
20
-0.9827103149606299
11
2.9841509055118109
21
-0.9857936220472441
0
LINE
8
BLACK
6
CONTINUOUS
10
2.9841509055118109
20
-0.9857936220472441
11
2.9833529133858265
21
-0.9887718503937007
0
LINE
8
BLACK
6
CONTINUOUS
10
2.9833529133858265
20
-0.9887718503937007
11
2.9818112598425195
21
-0.9914420472440945
0
LINE
8
BLACK
6
CONTINUOUS
10
2.9818112598425195
20
-0.9914420472440945
11
2.9796310236220473
21
-0.9936222834645669
0
LINE
8
BLACK
6
CONTINUOUS
10
2.9796310236220473
20
-0.9936222834645669
11
2.9769608267716534
21
-0.995163937007874
0
LINE
8
BLACK
6
CONTINUOUS
10
2.9769608267716534
20
-0.995163937007874
11
2.9739825984251969
21
-0.9959619291338583
0
LINE
8
BLACK
6
CONTINUOUS
10
2.9739825984251969
20
-0.9959619291338583
11
2.9708992913385828
21
-0.9959619291338583
0
LINE
8
BLACK
6
CONTINUOUS
10
2.9708992913385828
20
-0.9959619291338583
11
2.9679210629921258
21
-0.995163937007874
0
LINE
8
BLACK
6
CONTINUOUS
10
2.9679210629921258
20
-0.995163937007874
11
2.9652508661417323
21
-0.9936222834645669
0
LINE
8
BLACK
6
CONTINUOUS
10
2.9652508661417323
20
-0.9936222834645669
11
2.9630706299212597
21
-0.9914420472440945
0
LINE
8
BLACK
6
CONTINUOUS
10
2.9630706299212597
20
-0.9914420472440945
11
2.9615289763779526
21
-0.9887718503937007
0
LINE
8
BLACK
6
CONTINUOUS
10
2.9615289763779526
20
-0.9887718503937007
11
2.9613727952755906
21
-0.9881889763779528
0
LINE
8
BLACK
6
CONTINUOUS
10
2.9613727952755906
20
-0.9881889763779528
11
2.4622606692913385
21
-0.9881889763779528
0
LINE
8
BLACK
6
CONTINUOUS
10
2.4622606692913385
20
-0.9881889763779528
11
2.326771653543307
21
-1.1236779921259843
0
LINE
8
BLACK
6
CONTINUOUS
10
2.326771653543307
20
-1.1236779921259843
11
2.326771653543307
21
-1.1771653543307086
0
LINE
8
BLACK
6
CONTINUOUS
10
2.326771653543307
20
-1.1771653543307086
11
2.5
21
-1.1771653543307086
0
LINE
8
BLACK
6
CONTINUOUS
10
2.5
20
-1.1771653543307086
11
2.5007680708661417
21
-1.1772409842519684
0
LINE
8
BLACK
6
CONTINUOUS
10
2.5007680708661417
20
-1.1772409842519684
11
2.5021872834645671
21
-1.1778288582677165
0
LINE
8
BLACK
6
CONTINUOUS
10
2.5021872834645671
20
-1.1778288582677165
11
2.5027838976377952
21
-1.1783184645669291
0
LINE
8
BLACK
6
CONTINUOUS
10
2.5027838976377952
20
-1.1783184645669291
11
2.5618389763779525
21
-1.2373735826771652
0
LINE
8
BLACK
6
CONTINUOUS
10
2.5618389763779525
20
-1.2373735826771652
11
2.5623286220472439
21
-1.237970157480315
0
LINE
8
BLACK
6
CONTINUOUS
10
2.5623286220472439
20
-1.237970157480315
11
2.5623286220472439
21
-1.2379701968503938
0
LINE
8
BLACK
6
CONTINUOUS
10
2.5623286220472439
20
-1.2379701968503938
11
2.5629164566929132
21
-1.2393894094488189
0
LINE
8
BLACK
6
CONTINUOUS
10
2.5629164566929132
20
-1.2393894094488189
11
2.5629164566929132
21
-1.2409255511811024
0
LINE
8
BLACK
6
CONTINUOUS
10
2.5629164566929132
20
-1.2409255511811024
11
2.5623286220472439
21
-1.2423448031496063
0
LINE
8
BLACK
6
CONTINUOUS
10
2.5623286220472439
20
-1.2423448031496063
11
2.5618389763779525
21
-1.2429413779527558
0
LINE
8
BLACK
6
CONTINUOUS
10
2.5618389763779525
20
-1.2429413779527558
11
2.326771653543307
21
-1.4780087007874014
0
LINE
8
BLACK
6
CONTINUOUS
10
2.326771653543307
20
-1.4780087007874014
11
2.326771653543307
21
-1.565298346456693
0
LINE
8
BLACK
6
CONTINUOUS
10
2.326771653543307
20
-1.565298346456693
11
2.4184759448818895
21
-1.4735940551181101
0
LINE
8
BLACK
6
CONTINUOUS
10
2.4184759448818895
20
-1.4735940551181101
11
2.4190725590551181
21
-1.4731044488188976
0
LINE
8
BLACK
6
CONTINUOUS
10
2.4190725590551181
20
-1.4731044488188976
11
2.4204917716535435
21
-1.4725165748031497
0
LINE
8
BLACK
6
CONTINUOUS
10
2.4204917716535435
20
-1.4725165748031497
11
2.4212598425196852
21
-1.4724409448818898
0
LINE
8
BLACK
6
CONTINUOUS
10
2.4212598425196852
20
-1.4724409448818898
11
3.000742874015748
21
-1.4724409448818898
0
LINE
8
BLACK
6
CONTINUOUS
10
3.000742874015748
20
-1.4724409448818898
11
3.0008990551181101
21
-1.4718580708661417
0
LINE
8
BLACK
6
CONTINUOUS
10
3.0008990551181101
20
-1.4718580708661417
11
3.0024407086614171
21
-1.469187874015748
0
LINE
8
BLACK
6
CONTINUOUS
10
3.0024407086614171
20
-1.469187874015748
11
3.0046209448818897
21
-1.4670076377952757
0
LINE
8
BLACK
6
CONTINUOUS
10
3.0046209448818897
20
-1.4670076377952757
11
3.0072911417322832
21
-1.4654659842519684
0
LINE
8
BLACK
6
CONTINUOUS
10
3.0072911417322832
20
-1.4654659842519684
11
3.0102693700787402
21
-1.4646679921259842
0
LINE
8
BLACK
6
CONTINUOUS
10
3.0102693700787402
20
-1.4646679921259842
11
3.0133526771653543
21
-1.4646679921259842
0
LINE
8
BLACK
6
CONTINUOUS
10
3.0133526771653543
20
-1.4646679921259842
11
3.0163309055118108
21
-1.4654659842519684
0
LINE
8
BLACK
6
CONTINUOUS
10
3.0163309055118108
20
-1.4654659842519684
11
3.0190011023622048
21
-1.4670076377952757
0
LINE
8
BLACK
6
CONTINUOUS
10
3.0190011023622048
20
-1.4670076377952757
11
3.0211813385826769
21
-1.469187874015748
0
LINE
8
BLACK
6
CONTINUOUS
10
3.0211813385826769
20
-1.469187874015748
11
3.0227229921259844
21
-1.4718580708661417
0
LINE
8
BLACK
6
CONTINUOUS
10
3.0227229921259844
20
-1.4718580708661417
11
3.0235209842519684
21
-1.4748362992125983
0
LINE
8
BLACK
6
CONTINUOUS
10
3.0235209842519684
20
-1.4748362992125983
11
3.0235209842519684
21
-1.4779196062992126
0
LINE
8
BLACK
6
CONTINUOUS
10
3.0235209842519684
20
-1.4779196062992126
11
3.0227229921259844
21
-1.4808978346456692
0
LINE
8
BLACK
6
CONTINUOUS
10
3.0227229921259844
20
-1.4808978346456692
11
3.0211813385826769
21
-1.4835680314960629
0
LINE
8
BLACK
6
CONTINUOUS
10
3.0211813385826769
20
-1.4835680314960629
11
3.0190011023622048
21
-1.4857482677165355
0
LINE
8
BLACK
6
CONTINUOUS
10
3.0190011023622048
20
-1.4857482677165355
11
3.0163309055118108
21
-1.4872899212598425
0
LINE
8
BLACK
6
CONTINUOUS
10
3.0163309055118108
20
-1.4872899212598425
11
3.0133526771653543
21
-1.4880879133858267
0
LINE
8
BLACK
6
CONTINUOUS
10
3.0133526771653543
20
-1.4880879133858267
11
3.0102693700787402
21
-1.4880879133858267
0
LINE
8
BLACK
6
CONTINUOUS
10
3.0102693700787402
20
-1.4880879133858267
11
3.0072911417322832
21
-1.4872899212598425
0
LINE
8
BLACK
6
CONTINUOUS
10
3.0072911417322832
20
-1.4872899212598425
11
3.0046209448818897
21
-1.4857482677165355
0
LINE
8
BLACK
6
CONTINUOUS
10
3.0046209448818897
20
-1.4857482677165355
11
3.0024407086614171
21
-1.4835680314960629
0
LINE
8
BLACK
6
CONTINUOUS
10
3.0024407086614171
20
-1.4835680314960629
11
3.0008990551181101
21
-1.4808978346456692
0
LINE
8
BLACK
6
CONTINUOUS
10
3.0008990551181101
20
-1.4808978346456692
11
3.000742874015748
21
-1.4803149606299213
0
LINE
8
BLACK
6
CONTINUOUS
10
3.000742874015748
20
-1.4803149606299213
11
2.4228906299212598
21
-1.4803149606299213
0
LINE
8
BLACK
6
CONTINUOUS
10
2.4228906299212598
20
-1.4803149606299213
11
2.3256185433070864
21
-1.5775870472440945
0
LINE
8
BLACK
6
CONTINUOUS
10
2.3256185433070864
20
-1.5775870472440945
11
2.3250219291338583
21
-1.5780766535433071
0
LINE
8
BLACK
6
CONTINUOUS
10
2.3250219291338583
20
-1.5780766535433071
11
2.3236027165354329
21
-1.5786645275590552
0
LINE
8
BLACK
6
CONTINUOUS
10
2.3236027165354329
20
-1.5786645275590552
11
2.3220665748031495
21
-1.5786645275590552
0
LINE
8
BLACK
6
CONTINUOUS
10
2.3220665748031495
20
-1.5786645275590552
11
2.3206473622047246
21
-1.5780766535433071
0
LINE
8
BLACK
6
CONTINUOUS
10
2.3206473622047246
20
-1.5780766535433071
11
2.3195611417322834
21
-1.5769904330708662
0
LINE
8
BLACK
6
CONTINUOUS
10
2.3195611417322834
20
-1.5769904330708662
11
2.3189732677165353
21
-1.5755712204724408
0
LINE
8
BLACK
6
CONTINUOUS
10
2.3189732677165353
20
-1.5755712204724408
11
2.3188976377952755
21
-1.5748031496062991
0
LINE
8
BLACK
6
CONTINUOUS
10
2.3188976377952755
20
-1.5748031496062991
11
2.3188976377952755
21
-1.4763779527559056
0
LINE
8
BLACK
6
CONTINUOUS
10
2.3188976377952755
20
-1.4763779527559056
11
2.3189732677165353
21
-1.4756098818897638
0
LINE
8
BLACK
6
CONTINUOUS
10
2.3189732677165353
20
-1.4756098818897638
11
2.3195611417322834
21
-1.4741906692913385
0
LINE
8
BLACK
6
CONTINUOUS
10
2.3195611417322834
20
-1.4741906692913385
11
2.320050748031496
21
-1.4735940551181101
0
LINE
8
BLACK
6
CONTINUOUS
10
2.320050748031496
20
-1.4735940551181101
11
2.5534873228346457
21
-1.2401574803149606
0
LINE
8
BLACK
6
CONTINUOUS
10
2.5534873228346457
20
-1.2401574803149606
11
2.4983692125984249
21
-1.1850393700787401
0
LINE
8
BLACK
6
CONTINUOUS
10
2.4983692125984249
20
-1.1850393700787401
11
2.3228346456692912
21
-1.1850393700787401
0
LINE
8
BLACK
6
CONTINUOUS
10
2.3228346456692912
20
-1.1850393700787401
11
2.3220665748031495
21
-1.1849637401574802
0
LINE
8
BLACK
6
CONTINUOUS
10
2.3220665748031495
20
-1.1849637401574802
11
2.3206473622047246
21
-1.1843758661417323
0
LINE
8
BLACK
6
CONTINUOUS
10
2.3206473622047246
20
-1.1843758661417323
11
2.3195611417322834
21
-1.1832896456692914
0
LINE
8
BLACK
6
CONTINUOUS
10
2.3195611417322834
20
-1.1832896456692914
11
2.3189732677165353
21
-1.181870433070866
0
LINE
8
BLACK
6
CONTINUOUS
10
2.3189732677165353
20
-1.181870433070866
11
2.3188976377952755
21
-1.1811023622047243
0
LINE
8
BLACK
6
CONTINUOUS
10
2.3188976377952755
20
-1.1811023622047243
11
2.3188976377952755
21
-1.1220472440944882
0
LINE
8
BLACK
6
CONTINUOUS
10
2.3188976377952755
20
-1.1220472440944882
11
2.3189732677165353
21
-1.1212791732283465
0
LINE
8
BLACK
6
CONTINUOUS
10
2.3189732677165353
20
-1.1212791732283465
11
2.3195611417322834
21
-1.1198599606299213
0
LINE
8
BLACK
6
CONTINUOUS
10
2.3195611417322834
20
-1.1198599606299213
11
2.320050748031496
21
-1.1192633464566928
0
LINE
8
BLACK
6
CONTINUOUS
10
2.320050748031496
20
-1.1192633464566928
11
2.4578460236220474
21
-0.9814681102362205
0
LINE
8
BLACK
6
CONTINUOUS
10
2.4578460236220474
20
-0.9814681102362205
11
2.4584425984251967
21
-0.9809784645669292
0
LINE
8
BLACK
6
CONTINUOUS
10
2.4584425984251967
20
-0.9809784645669292
11
2.4588582677165354
21
-0.9808062598425197
0
LINE
8
BLACK
6
CONTINUOUS
10
2.4588582677165354
20
-0.9808062598425197
11
2.4598618503937009
21
-0.9803905905511811
0
LINE
8
BLACK
6
CONTINUOUS
10
2.4598618503937009
20
-0.9803905905511811
11
2.4606299212598426
21
-0.9803149606299212
0
LINE
8
BLACK
6
CONTINUOUS
10
2.4606299212598426
20
-0.9803149606299212
11
2.9613727952755906
21
-0.9803149606299212
0
LINE
8
BLACK
6
CONTINUOUS
10
2.9613727952755906
20
-0.9803149606299212
11
2.9615289763779526
21
-0.9797320866141732
0
LINE
8
BLACK
6
CONTINUOUS
10
2.9615289763779526
20
-0.9797320866141732
11
2.9630706299212597
21
-0.9770618897637795
0
LINE
8
BLACK
6
CONTINUOUS
10
2.9630706299212597
20
-0.9770618897637795
11
2.9652508661417323
21
-0.974881653543307
0
LINE
8
BLACK
6
CONTINUOUS
10
2.9652508661417323
20
-0.974881653543307
11
2.9679210629921258
21
-0.97334
0
LINE
8
BLACK
6
CONTINUOUS
10
2.9679210629921258
20
-0.97334
11
2.9708992913385828
21
-0.9725420078740157
0
LINE
8
BLACK
6
CONTINUOUS
10
2.9708992913385828
20
-0.9725420078740157
11
2.9739825984251969
21
-0.9725420078740157
0
LINE
8
BLACK
6
CONTINUOUS
10
2.9739825984251969
20
-0.9725420078740157
11
2.9769608267716534
21
-0.97334
0
CIRCLE
8
BLACK
10
2.1456692913385824
20
-1.6141732283464567
40
0.0059055118110236
0
CIRCLE
8
BLACK
10
3.0118110236220472
20
-1.4763779527559056
40
0.0059055118110236
0
CIRCLE
8
BLACK
10
2.9724409448818898
20
-0.984251968503937
40
0.0059055118110236
0
CIRCLE
8
BLACK
10
2.2834645669291338
20
-1.0236220472440944
40
0.0059055118110236
  0
ENDSEC
  0
EOF
